<svg width="378" height="302" xmlns="http://www.w3.org/2000/svg" xmlns:xlink="http://www.w3.org/1999/xlink" overflow="hidden"><defs><clipPath id="clip0"><rect x="0" y="0" width="378" height="302"/></clipPath><clipPath id="clip1"><rect x="37" y="53" width="296" height="196"/></clipPath><clipPath id="clip2"><rect x="37" y="53" width="297" height="196"/></clipPath></defs><g clip-path="url(#clip0)"><rect x="0" y="0" width="378" height="301.667" fill="#FFFFFF"/><g clip-path="url(#clip1)"><g clip-path="url(#clip2)"><path d="M0 0 1276.49 0 1276.49 902.576 2.22103e-05 902.576Z" fill="#FFFFFF" transform="matrix(1.00033 0 0 1 -453.462 -273.893)"/><path d="M564.459 348.428 593.949 412.443 623.319 348.428 652.93 348.428 593.707 470.256 534.953 348.428 564.444 348.428Z" fill="#1036E2" transform="matrix(1.00033 0 0 1 -453.462 -273.893)"/><path d="M727.195 462.417 697.705 398.402 668.335 462.417 638.724 462.417 697.947 340.589 756.701 462.417 727.21 462.417Z" fill="#1036E2" transform="matrix(1.00033 0 0 1 -453.462 -273.893)"/><path d="M669.821 499.186 697.932 441.342 725.83 499.186 669.821 499.186Z" fill="#00CD00" transform="matrix(1.00033 0 0 1 -453.462 -273.893)"/></g></g></g></svg>